<svg width="837" height="833" viewBox="0 0 837 833" fill="none" xmlns="http://www.w3.org/2000/svg">
<g filter="url(#filter0_f)">
<ellipse cx="418.109" cy="416.449" rx="279" ry="304.662" transform="rotate(-13.992 418.109 416.449)" fill="#4C8AE8"/>
<ellipse cx="418.109" cy="416.449" rx="279" ry="304.662" transform="rotate(-13.992 418.109 416.449)" fill="url(#paint0_linear)"/>
</g>
<ellipse cx="418.109" cy="416.449" rx="279" ry="304.662" transform="rotate(-13.992 418.109 416.449)" fill="#4C8AE8"/>
<ellipse cx="418.109" cy="416.449" rx="279" ry="304.662" transform="rotate(-13.992 418.109 416.449)" fill="#213990"/>
<g filter="url(#filter1_f)">
<ellipse cx="418.109" cy="416.449" rx="279" ry="304.662" transform="rotate(47.623 418.109 416.449)" fill="#4C8AE8"/>
<ellipse cx="418.109" cy="416.449" rx="279" ry="304.662" transform="rotate(47.623 418.109 416.449)" fill="#A3F3FF"/>
</g>
<ellipse cx="418.109" cy="416.449" rx="279" ry="304.662" transform="rotate(47.623 418.109 416.449)" fill="#4C8AE8"/>
<ellipse cx="418.109" cy="416.449" rx="279" ry="304.662" transform="rotate(47.623 418.109 416.449)" fill="#1BC9FE"/>
<g filter="url(#filter2_f)">
<ellipse cx="417.789" cy="418.293" rx="254.098" ry="282.214" transform="rotate(-75 417.789 418.293)" fill="#160D35"/>
<ellipse cx="417.789" cy="418.293" rx="254.098" ry="282.214" transform="rotate(-75 417.789 418.293)" fill="url(#paint1_linear)"/>
</g>
<ellipse cx="417.788" cy="418.293" rx="254.098" ry="282.944" transform="rotate(-75 417.788 418.293)" fill="#160D35"/>
<ellipse cx="417.788" cy="418.293" rx="254.098" ry="282.944" transform="rotate(-75 417.788 418.293)" fill="url(#paint2_linear)"/>
<defs>
<filter id="filter0_f" x="68.7245" y="48.3677" width="698.77" height="736.162" filterUnits="userSpaceOnUse" color-interpolation-filters="sRGB">
<feFlood flood-opacity="0" result="BackgroundImageFix"/>
<feBlend mode="normal" in="SourceGraphic" in2="BackgroundImageFix" result="shape"/>
<feGaussianBlur stdDeviation="2.5" result="effect1_foregroundBlur"/>
</filter>
<filter id="filter1_f" x="0" y="0" width="836.219" height="832.897" filterUnits="userSpaceOnUse" color-interpolation-filters="sRGB">
<feFlood flood-opacity="0" result="BackgroundImageFix"/>
<feBlend mode="normal" in="SourceGraphic" in2="BackgroundImageFix" result="shape"/>
<feGaussianBlur stdDeviation="2.5" result="effect1_foregroundBlur"/>
</filter>
<filter id="filter2_f" x="74.4252" y="94.8105" width="686.727" height="646.965" filterUnits="userSpaceOnUse" color-interpolation-filters="sRGB">
<feFlood flood-opacity="0" result="BackgroundImageFix"/>
<feBlend mode="normal" in="SourceGraphic" in2="BackgroundImageFix" result="shape"/>
<feGaussianBlur stdDeviation="2.5" result="effect1_foregroundBlur"/>
</filter>
<linearGradient id="paint0_linear" x1="418.109" y1="111.786" x2="418.109" y2="721.111" gradientUnits="userSpaceOnUse">
<stop stop-color="#126AED"/>
<stop offset="1" stop-color="white" stop-opacity="0"/>
</linearGradient>
<linearGradient id="paint1_linear" x1="417.789" y1="136.079" x2="417.789" y2="700.507" gradientUnits="userSpaceOnUse">
<stop stop-color="#160D35"/>
<stop offset="1" stop-color="white" stop-opacity="0"/>
</linearGradient>
<linearGradient id="paint2_linear" x1="417.788" y1="135.348" x2="417.788" y2="701.237" gradientUnits="userSpaceOnUse">
<stop stop-color="#160D35"/>
<stop offset="1" stop-color="#493297" stop-opacity="0"/>
</linearGradient>
</defs>
</svg>
