<svg width="115" height="13" viewBox="0 0 115 13" fill="none" xmlns="http://www.w3.org/2000/svg">
<path d="M10.7655 9.94177V6.59423C10.7655 6.10703 10.2312 5.66698 9.6497 5.66698H6.50648C5.24919 5.66698 5.10774 7.58435 6.50648 7.58435H8.8639V9.51743C8.2824 9.94177 7.46516 10.2247 6.50648 10.2247C4.44766 10.2247 2.90748 8.81021 2.90748 6.48422C2.90748 4.26824 4.74627 2.74378 6.64792 2.74378C7.46516 2.74378 8.2824 3.16812 8.8639 3.7339C9.80686 4.56685 11.1899 3.16812 10.2312 2.22515C9.2568 1.26646 7.8895 0.842128 6.64792 0.842128C3.33182 0.842128 0.864387 3.30956 0.864387 6.48422C0.864387 10.2247 3.20609 12.1106 6.50648 12.1106C7.8895 12.1106 9.2568 11.7177 10.3726 10.7904C10.6398 10.4918 10.7655 10.2247 10.7655 9.94177ZM14.2194 11.4662L14.8952 10.0832H20.6945L21.386 11.4662C21.9517 12.6921 23.8534 11.7177 23.209 10.4918L18.7771 1.67508C18.3842 0.810696 17.2526 0.842128 16.8283 1.67508L12.3178 10.4918C12.0034 11.1519 12.3178 11.7177 12.8207 12.0006C13.3865 12.1106 13.968 12.0006 14.2194 11.4662ZM15.8696 8.00868L17.8027 4.1268L19.5786 8.00868H15.8696ZM26.2477 11.0262C26.2477 12.4249 28.3222 12.3935 28.3222 11.0262V3.08953H30.9311C32.3298 3.08953 32.3298 1.07787 30.9311 1.07787H23.4973C22.13 1.07787 22.13 3.08953 23.4973 3.08953H26.2477V11.0262ZM40.3519 12.0006C41.8921 12.0006 41.7821 9.94177 40.3519 9.94177H35.5585V7.58435H39.5189C40.9177 7.58435 40.9177 5.52553 39.5189 5.52553H35.5585V3.16812H40.0847C41.4992 3.16812 41.5306 1.12502 40.0847 1.12502H34.4426C33.8926 1.12502 33.4682 1.53364 33.4682 2.09942V11.0262C33.4682 11.5762 33.8926 12.0006 34.4426 12.0006H40.3519ZM51.3569 1.72223C50.9483 0.763548 49.9581 0.810696 49.5809 1.76938L46.7992 8.24443L44.4732 1.76938C44.0646 0.527806 42.0686 1.04644 42.5401 2.46089L45.5891 11.0262C45.8405 11.7177 46.1234 12.0949 46.6735 12.0949C47.2392 12.0949 47.5064 11.7177 47.7893 11.0576L50.3982 4.94404L53.1328 11.1519C53.4471 11.7177 53.62 12.0634 54.1858 12.0634C54.7201 12.0634 54.9873 11.7963 55.2702 10.9005L58.382 2.46089C58.8535 1.09359 56.9518 0.496373 56.4803 1.76938L54.1386 8.24443L51.3569 1.72223ZM60.3241 11.4662L60.9999 10.0832H66.7992L67.4907 11.4662C68.0565 12.6921 69.9581 11.7177 69.3138 10.4918L64.8818 1.67508C64.4889 0.810696 63.3574 0.842128 62.933 1.67508L58.4225 10.4918C58.1082 11.1519 58.4225 11.7177 58.9254 12.0006C59.4912 12.1106 60.0727 12.0006 60.3241 11.4662ZM61.9743 8.00868L63.9074 4.1268L65.6833 8.00868H61.9743ZM72.5475 7.77294V11.0105C72.5475 12.3778 74.622 12.4092 74.622 11.0262V7.77294L78.1739 2.63377C78.9911 1.58079 77.2466 0.433508 76.4137 1.58079L73.6319 5.6827L70.8816 1.58079C70.0643 0.354928 68.367 1.62793 69.1214 2.63377L72.5475 7.77294ZM89.0606 3.04239C93.4925 3.04239 93.304 10.0832 89.0606 10.0832H86.4517V3.04239H89.0606ZM89.202 12.0006C96.0857 12.0006 96.2429 1.12502 89.0606 1.12502H85.4616C84.943 1.12502 84.3772 1.53364 84.3772 2.09942V11.0262C84.3772 11.7177 84.943 12.0006 85.4616 12.0006H89.202ZM102.307 8.87307C102.072 11.1048 98.7556 10.4447 97.4669 9.56458C96.9325 9.12453 96.4768 9.26597 96.0682 9.67459C95.7853 10.0989 95.7695 10.7904 96.2882 11.2148C98.457 13.0064 104.241 12.9121 104.351 8.92022C104.461 4.73973 97.624 6.21704 98.0484 3.6396C98.3784 2.00512 101.019 2.35088 102.182 3.08953C103.125 3.78104 104.256 2.41374 103.188 1.54935C101.019 -0.116556 96.4139 0.433508 96.0524 3.48244C95.5652 7.94582 102.103 6.54708 102.307 8.87307ZM106.171 10.9162C106.171 11.6077 106.721 12.0006 107.24 12.0006C107.806 12.0006 108.246 11.6077 108.246 10.9162V8.84164H110.871C112.914 8.84164 114.752 7.45862 114.752 4.97547C114.752 2.35088 112.914 0.983573 110.871 0.983573H107.24C106.58 0.983573 106.171 1.54935 106.171 2.06799V10.9162ZM110.871 2.96381C111.924 2.96381 112.756 3.87534 112.756 4.97547C112.756 5.94987 111.924 6.87712 110.871 6.87712H108.246V2.96381H110.871Z" fill="white"/>
</svg>
