<svg width="107" height="12" viewBox="0 0 107 12" fill="none" xmlns="http://www.w3.org/2000/svg">
<path d="M0.37393 3.32954C0.709874 0.494609 4.99169 -0.0181551 7.00735 1.53192C8.00045 2.33643 6.94841 3.60654 6.07319 2.96412C4.99169 2.27749 2.53694 1.95628 2.23046 3.47688C1.83558 5.87272 8.19199 4.49946 8.0918 8.38643C7.98866 12.0995 2.61061 12.185 0.594946 10.52C0.111658 10.1251 0.126391 9.48269 0.39161 9.0878C0.771758 8.70765 1.19611 8.57504 1.69118 8.98466C2.89056 9.8039 5.973 10.4169 6.19107 8.34223C5.99952 6.1792 -0.0798893 7.47879 0.37393 3.32954Z" fill="#393939"/>
<path d="M14.0533 4.83255V10.2401C14.0533 10.8826 13.5258 11.248 13.0013 11.248C12.5327 11.248 12.1231 10.8826 12.1231 10.2401V2.01236C12.1231 1.25206 12.7655 1.00452 13.0013 1.00452C13.4256 1.00452 13.6732 1.25206 13.9207 1.53201L17.1358 5.87281L20.4687 1.37288C20.952 0.774658 22.1337 1.00746 22.1337 2.01531V10.2431C22.1337 10.8855 21.724 11.2509 21.2555 11.2509C20.728 11.2509 20.3213 10.8855 20.3213 10.2431V4.8355L17.896 7.90323C17.3686 8.54566 16.7114 8.54566 16.2311 7.90323L14.0533 4.83255Z" fill="#393939"/>
<path d="M26.2977 11.2479C25.8291 10.9857 25.5374 10.4582 25.8291 9.84522L30.0225 1.64692C30.4174 0.871878 31.4694 0.842409 31.8348 1.64692L35.9546 9.84522C36.5528 10.9857 34.7847 11.8904 34.2601 10.7499L33.6177 9.46507H28.2249L27.5972 10.7499C27.3644 11.2479 26.8252 11.3511 26.2977 11.2479ZM32.5834 7.53779L30.9331 3.92782L29.1355 7.53779H32.5834Z" fill="#393939"/>
<path d="M41.5712 10.2991C41.5712 11.5692 39.6262 11.6134 39.6262 10.3286V2.02713C39.6262 1.51437 40.0211 1.13422 40.5044 1.13422H44.3913C48.1044 1.13422 48.8617 6.1027 45.7646 7.3463L47.7095 9.71267C48.4698 10.8384 46.9492 11.9199 46.074 10.8089L43.8668 7.65278H41.5712V10.2991ZM41.5712 5.97304H44.3913C46.2921 5.97304 46.407 2.90531 44.3913 2.90531H41.5712V5.97304Z" fill="#393939"/>
<path d="M54.5906 2.96418H52.0327C50.7626 2.96418 50.7626 1.0929 52.0327 1.0929H58.946C60.2456 1.0929 60.2456 2.96418 58.946 2.96418H56.5208V10.3432C56.5208 11.6134 54.5906 11.6428 54.5906 10.3432V2.96418Z" fill="#393939"/>
<path d="M65.5943 4.83255V10.2401C65.5943 10.8826 65.0668 11.248 64.5423 11.248C64.0738 11.248 63.6641 10.8826 63.6641 10.2401V2.01236C63.6641 1.25206 64.3066 1.00452 64.5423 1.00452C64.9667 1.00452 65.2142 1.25206 65.4617 1.53201L68.6768 5.87281L72.0097 1.37288C72.493 0.774658 73.6747 1.00746 73.6747 2.01531V10.2431C73.6747 10.8855 73.2651 11.2509 72.7965 11.2509C72.269 11.2509 71.8623 10.8855 71.8623 10.2431V4.8355L69.4371 7.90323C68.9096 8.54566 68.2524 8.54566 67.7721 7.90323L65.5943 4.83255Z" fill="#393939"/>
<path d="M78.1478 2.01242C78.1478 0.813025 80.078 0.768822 80.078 2.01242V10.3581C80.078 11.5722 78.1478 11.5987 78.1478 10.3581V2.01242Z" fill="#393939"/>
<path d="M84.5926 2.15971C84.5926 1.63221 84.7105 1.12239 85.4708 1.12239C85.9983 1.12239 86.1132 1.255 86.5081 1.63516L91.3439 7.68516V2.01236C91.3439 1.52907 91.7683 1.00452 92.2634 1.00452C92.7909 1.00452 93.3007 1.53201 93.3007 2.01236V10.2401C93.3007 10.8826 92.9058 11.1331 92.5256 11.248C92.0129 11.248 91.7653 11.1301 91.341 10.7352L86.5052 4.5968V10.2372C86.5052 10.8796 86.1103 11.245 85.5857 11.245C85.0582 11.245 84.5926 10.8796 84.5926 10.2372V2.15971Z" fill="#393939"/>
<path d="M98.6817 11.2479C98.1984 11.2479 97.6739 10.9857 97.6739 10.3432V2.04179C97.6739 1.51429 98.2014 1.13708 98.6817 1.13708H102.029C108.707 1.13708 108.563 11.2509 102.162 11.2509H98.6817V11.2479ZM99.6011 2.91997V9.468H102.026C105.972 9.468 106.146 2.91997 102.026 2.91997H99.6011Z" fill="#393939"/>
</svg>
